REM DIRINDEX 1\3,1\2\4,1\2\5,1\2\6
REM DIRNAME cjc137,folder01,folder02,folder03,folder04,folder05
TITLE ""
FILE "004.mp3" MP3
  TRACK 01 AUDIO
    TITLE "4:cjc137_0129"
    INDEX 01 00:00:00
  TRACK 02 AUDIO
    TITLE "0:"
    INDEX 01 00:01:21
  TRACK 03 AUDIO
    TITLE "6:cjc137_0130"
    INDEX 01 00:01:30
  TRACK 04 AUDIO
    TITLE "0:"
    INDEX 01 00:02:32
  TRACK 05 AUDIO
    TITLE "5:cjc137_0131"
    INDEX 01 00:02:42
  TRACK 06 AUDIO
    TITLE "0:"
    INDEX 01 00:03:59
  TRACK 07 AUDIO
    TITLE "4:cjc137_0132"
    INDEX 01 00:04:68
  TRACK 08 AUDIO
    TITLE "0:"
    INDEX 01 00:06:04
  TRACK 09 AUDIO
    TITLE "6:cjc137_0133"
    INDEX 01 00:06:16
  TRACK 10 AUDIO
    TITLE "0:"
    INDEX 01 00:07:17
  TRACK 11 AUDIO
    TITLE "5:cjc137_0134"
    INDEX 01 00:07:29
  TRACK 12 AUDIO
    TITLE "0:"
    INDEX 01 00:08:42
  TRACK 13 AUDIO
    TITLE "4:cjc137_0135"
    INDEX 01 00:09:47
  TRACK 14 AUDIO
    TITLE "0:"
    INDEX 01 00:10:57
  TRACK 15 AUDIO
    TITLE "6:cjc137_0136"
    INDEX 01 00:10:68
  TRACK 16 AUDIO
    TITLE "0:"
    INDEX 01 00:11:58
  TRACK 17 AUDIO
    TITLE "5:cjc137_0137"
    INDEX 01 00:11:68
  TRACK 18 AUDIO
    TITLE "0:"
    INDEX 01 00:13:02
  TRACK 19 AUDIO
    TITLE "4:cjc137_0138"
    INDEX 01 00:14:13
  TRACK 20 AUDIO
    TITLE "0:"
    INDEX 01 00:15:36
  TRACK 21 AUDIO
    TITLE "6:cjc137_0139"
    INDEX 01 00:15:46
  TRACK 22 AUDIO
    TITLE "0:"
    INDEX 01 00:16:51
  TRACK 23 AUDIO
    TITLE "5:cjc137_0140"
    INDEX 01 00:16:63
  TRACK 24 AUDIO
    TITLE "0:"
    INDEX 01 00:18:11
  TRACK 25 AUDIO
    TITLE "4:cjc137_0141"
    INDEX 01 00:19:18
  TRACK 26 AUDIO
    TITLE "0:"
    INDEX 01 00:20:26
  TRACK 27 AUDIO
    TITLE "6:cjc137_0142"
    INDEX 01 00:20:36
  TRACK 28 AUDIO
    TITLE "0:"
    INDEX 01 00:21:43
  TRACK 29 AUDIO
    TITLE "5:cjc137_0143"
    INDEX 01 00:21:58
  TRACK 30 AUDIO
    TITLE "0:"
    INDEX 01 00:22:68
  TRACK 31 AUDIO
    TITLE "4:cjc137_0144"
    INDEX 01 00:23:73
  TRACK 32 AUDIO
    TITLE "0:"
    INDEX 01 00:25:01
  TRACK 33 AUDIO
    TITLE "6:cjc137_0145"
    INDEX 01 00:25:13
  TRACK 34 AUDIO
    TITLE "0:"
    INDEX 01 00:26:56
  TRACK 35 AUDIO
    TITLE "5:cjc137_0146"
    INDEX 01 00:26:67
  TRACK 36 AUDIO
    TITLE "0:"
    INDEX 01 00:27:73
  TRACK 37 AUDIO
    TITLE "4:cjc137_0147"
    INDEX 01 00:29:09
  TRACK 38 AUDIO
    TITLE "0:"
    INDEX 01 00:30:26
  TRACK 39 AUDIO
    TITLE "6:cjc137_0148"
    INDEX 01 00:30:40
  TRACK 40 AUDIO
    TITLE "0:"
    INDEX 01 00:31:57
  TRACK 41 AUDIO
    TITLE "5:cjc137_0149"
    INDEX 01 00:31:71
  TRACK 42 AUDIO
    TITLE "0:"
    INDEX 01 00:33:13
  TRACK 43 AUDIO
    TITLE "4:cjc137_0150"
    INDEX 01 00:34:24
  TRACK 44 AUDIO
    TITLE "0:"
    INDEX 01 00:35:27
  TRACK 45 AUDIO
    TITLE "6:cjc137_0151"
    INDEX 01 00:35:41
  TRACK 46 AUDIO
    TITLE "0:"
    INDEX 01 00:36:50
  TRACK 47 AUDIO
    TITLE "5:cjc137_0152"
    INDEX 01 00:36:64
  TRACK 48 AUDIO
    TITLE "0:"
    INDEX 01 00:37:67
  TRACK 49 AUDIO
    TITLE "4:cjc137_0153"
    INDEX 01 00:39:05
  TRACK 50 AUDIO
    TITLE "0:"
    INDEX 01 00:40:13
  TRACK 51 AUDIO
    TITLE "6:cjc137_0154"
    INDEX 01 00:40:23
  TRACK 52 AUDIO
    TITLE "0:"
    INDEX 01 00:41:45
  TRACK 53 AUDIO
    TITLE "5:cjc137_0155"
    INDEX 01 00:41:59
  TRACK 54 AUDIO
    TITLE "0:"
    INDEX 01 00:42:66
  TRACK 55 AUDIO
    TITLE "4:cjc137_0156"
    INDEX 01 00:43:74
  TRACK 56 AUDIO
    TITLE "0:"
    INDEX 01 00:45:00
  TRACK 57 AUDIO
    TITLE "6:cjc137_0157"
    INDEX 01 00:45:20
  TRACK 58 AUDIO
    TITLE "0:"
    INDEX 01 00:46:37
  TRACK 59 AUDIO
    TITLE "5:cjc137_0158"
    INDEX 01 00:46:49
  TRACK 60 AUDIO
    TITLE "0:"
    INDEX 01 00:47:50
  TRACK 61 AUDIO
    TITLE "4:cjc137_0159"
    INDEX 01 00:48:65
  TRACK 62 AUDIO
    TITLE "0:"
    INDEX 01 00:49:65
  TRACK 63 AUDIO
    TITLE "6:cjc137_0160"
    INDEX 01 00:50:03
  TRACK 64 AUDIO
    TITLE "0:"
    INDEX 01 00:51:24
  TRACK 65 AUDIO
    TITLE "5:cjc137_0161"
    INDEX 01 00:51:34
  TRACK 66 AUDIO
    TITLE "0:"
    INDEX 01 00:52:36
  TRACK 67 AUDIO
    TITLE "4:cjc137_0162"
    INDEX 01 00:53:43
  TRACK 68 AUDIO
    TITLE "0:"
    INDEX 01 00:54:52
  TRACK 69 AUDIO
    TITLE "6:cjc137_0163"
    INDEX 01 00:54:68
  TRACK 70 AUDIO
    TITLE "0:"
    INDEX 01 00:55:57
  TRACK 71 AUDIO
    TITLE "5:cjc137_0164"
    INDEX 01 00:55:69
  TRACK 72 AUDIO
    TITLE "0:"
    INDEX 01 00:57:03
  TRACK 73 AUDIO
    TITLE "4:cjc137_0165"
    INDEX 01 00:58:13
  TRACK 74 AUDIO
    TITLE "0:"
    INDEX 01 00:59:14
  TRACK 75 AUDIO
    TITLE "6:cjc137_0166"
    INDEX 01 00:59:28
  TRACK 76 AUDIO
    TITLE "0:"
    INDEX 01 01:00:12
  TRACK 77 AUDIO
    TITLE "5:cjc137_0167"
    INDEX 01 01:00:23
  TRACK 78 AUDIO
    TITLE "0:"
    INDEX 01 01:01:23
  TRACK 79 AUDIO
    TITLE "4:cjc137_0168"
    INDEX 01 01:02:34
  TRACK 80 AUDIO
    TITLE "0:"
    INDEX 01 01:03:49
  TRACK 81 AUDIO
    TITLE "6:cjc137_0169"
    INDEX 01 01:03:61
  TRACK 82 AUDIO
    TITLE "0:"
    INDEX 01 01:04:70
  TRACK 83 AUDIO
    TITLE "5:cjc137_0170"
    INDEX 01 01:05:07
  TRACK 84 AUDIO
    TITLE "0:"
    INDEX 01 01:06:22
